# xmcd
#
# Track frame offsets:
#	195
#	10965
#	30297
#	45305
#	60932
#	71332
#	87342
#	98160
#	113042
#	124747
#	141140
#	151602
#	167690
#	182950
#	196362
#	212092
#	226000
#	233425
#	247925
#	258700
#	272927
#
# Disc length: 3763 seconds
#
# Revision: 1
# Processed by: cddbd v1.4PL0 Copyright (c) Steve Scherf et al.
# Submitted via: audiograbber 1.81.03
#
DISCID=090eb115
DTITLE=Various Artist - 21 Cajun Classics
DYEAR=1989
DGENRE=Other
TTITLE0=Grand Mamou - Dewey Balfa
TTITLE1=Under The Green Oak Tree - D. L. Menard
TTITLE2=Madeleine - Zachary Richard
TTITLE3=Memoires Dans Mon Coeur - Jesse Lege
TTITLE4=Step It Fast - Joe Bonsall and Orange Playboys
TTITLE5=Kaplan Waltz - Nathan Abshire - Dewey Balfa and Balfa Bros
TTITLE6=Louisiana Two-step - Cajun Tradition
TTITLE7=Jolie Blonde - Jo - El Sonnier
TTITLE8=Le Breakdown De Layfayette - Jambalaya Cajun Band
TTITLE9=The Light In Your Window - Paul Daigle - Robert Elkins and Cajun Gold
TTITLE10=Bosco Stomp - Belton Richard
TTITLE11=Heritage Waltz - Ivy Dugas - Phil Menard and La. Travelers
TTITLE12=Marksville Two-step - Bruce Daigrepont
TTITLE13=Tolam Waltz - Fred Charlie and Acadiana Cajuns
TTITLE14=Ta Petite Robe Courte - Paul Daigle - Robert Elkins and Cajun Gold
TTITLE15=Greener Grass On The Other Side Of The Mountain - Johnnie Allen
TTITLE16=Reel A Dennis McGee - Michael Doucet - Beausoleil
TTITLE17=Drunkard's Sorrow Waltz - Balfa Brothers
TTITLE18='Cajun' Saints Go Marching In - Harry Fontenot and Friends
TTITLE19=You're So Easy To Love - Jim Olivier
TTITLE20=Shamrock - Nathan Abshire
EXTD=Swallow CD-6079
EXTT0=
EXTT1=
EXTT2=
EXTT3=
EXTT4=
EXTT5=
EXTT6=
EXTT7=
EXTT8=
EXTT9=
EXTT10=
EXTT11=
EXTT12=
EXTT13=
EXTT14=
EXTT15=
EXTT16=
EXTT17=
EXTT18=
EXTT19=
EXTT20=
PLAYORDER=
